<?xml version="1.0" encoding="UTF-8" standalone="no"?>
<!DOCTYPE svg PUBLIC "-//W3C//DTD SVG 1.1//EN" "http://www.w3.org/Graphics/SVG/1.1/DTD/svg11.dtd">
<svg width="617px" height="530px" version="1.1" xmlns="http://www.w3.org/2000/svg" xmlns:xlink="http://www.w3.org/1999/xlink" xml:space="preserve" xmlns:serif="http://www.serif.com/" style="fill-rule:evenodd;clip-rule:evenodd;stroke-linecap:round;stroke-linejoin:round;stroke-miterlimit:3;">
    <g transform="matrix(1,0,0,1,-2021.89,-1527.31)">
        <g id="FINAL-10-" serif:id="FINAL 10ยบ" transform="matrix(1.0273,0,0,0.883333,2021.89,1527.31)">
            <rect x="0" y="0" width="600" height="600" style="fill:none;"/>
            <clipPath id="_clip1">
                <rect x="0" y="0" width="600" height="600"/>
            </clipPath>
            <g clip-path="url(#_clip1)">
                <g transform="matrix(0.861439,0,-0.166685,1.09686,-1568.69,-1512.4)">
                    <path d="M2339.65,1409.8L2752.58,1409.8C2762.27,1409.8 2772.22,1413.72 2779.76,1420.5C2787.3,1427.28 2791.65,1436.23 2791.65,1444.94C2791.65,1542.88 2791.65,1817.19 2791.65,1901.13C2791.65,1915.43 2780.06,1925.86 2764.16,1925.86L2651.49,1925.86C2649.82,1925.86 2648.1,1925.18 2646.8,1924.01C2645.5,1922.84 2644.75,1921.3 2644.75,1919.8C2644.75,1872.74 2644.75,1566.87 2644.75,1545.19C2644.75,1544.89 2644.6,1544.58 2644.34,1544.35C2644.08,1544.11 2643.74,1543.98 2643.4,1543.98C2621.49,1543.98 2339.65,1543.98 2339.65,1543.98C2339.65,1543.98 2339.65,1888.3 2339.65,1901.13C2339.65,1915.43 2328.06,1925.86 2312.16,1925.86L2199.49,1925.86C2197.82,1925.86 2196.1,1925.18 2194.8,1924.01C2193.5,1922.84 2192.75,1921.3 2192.75,1919.8C2192.75,1863.68 2192.75,1435.89 2192.75,1404.41C2192.75,1403.23 2193.22,1402.15 2194.07,1401.37C2198.51,1397.32 2212.91,1384.16 2217.39,1380.07C2218.26,1379.28 2219.48,1378.84 2220.82,1378.84C2230.7,1378.84 2273.77,1378.84 2305.23,1378.84C2313.76,1378.84 2322.53,1382.29 2329.17,1388.26C2335.81,1394.24 2339.65,1402.12 2339.65,1409.8C2339.65,1409.8 2339.65,1409.8 2339.65,1409.8Z" style="fill:white;"/>
                </g>
                <g transform="matrix(0.861439,0,-0.166685,1.09686,-1568.69,-1512.4)">
                    <path d="M2334,1414.96L2742.86,1414.96C2750.76,1414.96 2758.87,1418.15 2765.01,1423.68C2771.15,1429.21 2774.7,1436.5 2774.7,1443.6L2774.7,1487.06L2775.69,1546.09L2753.54,1564.36C2749.45,1567.73 2743.97,1569.57 2737.96,1569.58L2653.1,1569.77C2652.43,1569.77 2651.74,1569.51 2651.22,1569.04C2650.7,1568.57 2650.4,1567.95 2650.4,1567.35L2650.4,1541.24C2650.4,1540.64 2650.1,1540.02 2649.58,1539.55C2649.06,1539.09 2648.37,1538.82 2647.71,1538.82L2322.7,1538.82L2325.46,1895.86L2301.65,1915.47C2297.55,1918.86 2292.04,1920.69 2286.01,1920.69L2201.09,1920.69C2200.43,1920.69 2199.74,1920.42 2199.22,1919.96C2198.7,1919.49 2198.4,1918.87 2198.4,1918.27L2198.4,1405.37C2198.4,1404.9 2198.59,1404.47 2198.93,1404.16L2221,1384L2301.67,1384C2309.68,1384 2317.92,1387.24 2324.16,1392.85C2330.4,1398.46 2334,1405.87 2334,1413.08L2334,1414.96ZM2200.85,1918.49L2285.58,1918.49C2291.08,1918.49 2296.1,1916.82 2299.84,1913.74C2299.84,1913.74 2323,1894.65 2323,1894.65L2320.24,1536.61L2647.28,1536.61C2648.66,1536.61 2650.08,1537.17 2651.15,1538.14C2652.23,1539.11 2652.85,1540.38 2652.85,1541.62L2652.85,1567.57L2737.53,1567.38C2743,1567.37 2748,1565.69 2751.72,1562.62L2773.23,1544.89L2772.25,1486.69L2772.25,1443.22C2772.25,1436.76 2769.02,1430.12 2763.43,1425.1C2757.85,1420.07 2750.47,1417.16 2743.29,1417.16L2331.55,1417.16L2331.55,1412.7C2331.55,1406.13 2328.27,1399.38 2322.59,1394.27C2316.9,1389.15 2309.4,1386.2 2302.09,1386.2L2222.31,1386.2L2200.85,1405.81L2200.85,1918.49Z"/>
                    <path d="M2334,1414.96L2742.86,1414.96C2750.76,1414.96 2758.87,1418.15 2765.01,1423.68C2771.15,1429.21 2774.7,1436.5 2774.7,1443.6C2774.7,1463.72 2774.7,1487.06 2774.7,1487.06L2775.69,1546.09C2775.69,1546.09 2761.93,1557.44 2753.54,1564.36C2749.45,1567.73 2743.97,1569.57 2737.96,1569.58C2716.72,1569.63 2665.43,1569.75 2653.1,1569.77C2652.43,1569.77 2651.74,1569.51 2651.22,1569.04C2650.7,1568.57 2650.4,1567.95 2650.4,1567.35C2650.4,1561.56 2650.4,1547.02 2650.4,1541.24C2650.4,1540.64 2650.1,1540.02 2649.58,1539.55C2649.06,1539.09 2648.37,1538.82 2647.71,1538.82C2616.39,1538.82 2322.7,1538.82 2322.7,1538.82L2325.46,1895.86C2325.46,1895.86 2310.49,1908.19 2301.65,1915.47C2297.55,1918.86 2292.04,1920.69 2286.01,1920.69L2201.09,1920.69C2200.43,1920.69 2199.74,1920.42 2199.22,1919.96C2198.7,1919.49 2198.4,1918.87 2198.4,1918.27C2198.4,1881 2198.4,1426.12 2198.4,1405.37C2198.4,1404.9 2198.59,1404.47 2198.93,1404.16C2202.33,1401.06 2221,1384 2221,1384L2301.67,1384C2309.68,1384 2317.92,1387.24 2324.16,1392.85C2330.4,1398.46 2334,1405.87 2334,1413.08L2334,1414.96Z" style="fill:none;"/>
                    <clipPath id="_clip2">
                        <path d="M2334,1414.96L2742.86,1414.96C2750.76,1414.96 2758.87,1418.15 2765.01,1423.68C2771.15,1429.21 2774.7,1436.5 2774.7,1443.6C2774.7,1463.72 2774.7,1487.06 2774.7,1487.06L2775.69,1546.09C2775.69,1546.09 2761.93,1557.44 2753.54,1564.36C2749.45,1567.73 2743.97,1569.57 2737.96,1569.58C2716.72,1569.63 2665.43,1569.75 2653.1,1569.77C2652.43,1569.77 2651.74,1569.51 2651.22,1569.04C2650.7,1568.57 2650.4,1567.95 2650.4,1567.35C2650.4,1561.56 2650.4,1547.02 2650.4,1541.24C2650.4,1540.64 2650.1,1540.02 2649.58,1539.55C2649.06,1539.09 2648.37,1538.82 2647.71,1538.82C2616.39,1538.82 2322.7,1538.82 2322.7,1538.82L2325.46,1895.86C2325.46,1895.86 2310.49,1908.19 2301.65,1915.47C2297.55,1918.86 2292.04,1920.69 2286.01,1920.69L2201.09,1920.69C2200.43,1920.69 2199.74,1920.42 2199.22,1919.96C2198.7,1919.49 2198.4,1918.87 2198.4,1918.27C2198.4,1881 2198.4,1426.12 2198.4,1405.37C2198.4,1404.9 2198.59,1404.47 2198.93,1404.16C2202.33,1401.06 2221,1384 2221,1384L2301.67,1384C2309.68,1384 2317.92,1387.24 2324.16,1392.85C2330.4,1398.46 2334,1405.87 2334,1413.08L2334,1414.96Z"/>
                    </clipPath>
                    <g clip-path="url(#_clip2)">
                        <g transform="matrix(1.14267,-0.0115715,-0.0126691,1.04368,-834.355,-639.24)">
                            <path d="M2687.55,2481.58L2707,2462.13L2702.06,2462.07L2702,2457.13L2682.55,2476.58L2682.61,2481.52L2687.55,2481.58Z" style="fill:none;stroke:black;stroke-width:1.07px;"/>
                            <path d="M2687.55,2481.58L2707,2462.13L2702.06,2462.07L2702,2457.13L2682.55,2476.58L2682.61,2481.52L2687.55,2481.58Z"/>
                        </g>
                        <g transform="matrix(1.19081,-0.0241151,-0.0264024,1.08765,-930.8,-713.121)">
                            <path d="M2702.02,2459.1L2682.14,2478.99" style="fill:none;stroke:white;stroke-width:1.09px;"/>
                        </g>
                        <g transform="matrix(1.11074,0.017588,0.0192562,1.01452,-377.291,-994.748)">
                            <path d="M2683.93,2453.2L2683.9,2455.23L2704.99,2434.14L2705.08,2429L2699.99,2429.11L2678.99,2450.11C2682.12,2450.05 2683.99,2450.06 2683.93,2453.2Z" style="fill:none;stroke:black;stroke-width:1.07px;stroke-linejoin:miter;"/>
                            <path d="M2683.93,2453.2L2683.9,2455.23L2704.99,2434.14L2705.08,2429L2699.99,2429.11L2678.99,2450.11C2682.12,2450.05 2683.99,2450.06 2683.93,2453.2Z"/>
                        </g>
                        <g transform="matrix(1.22927,-1.50207e-14,-1.68771e-14,1.12277,-647.387,-1207.4)">
                            <path d="M2702.02,2429.1L2681.67,2449.46" style="fill:none;stroke:white;stroke-width:1.07px;stroke-linejoin:miter;"/>
                        </g>
                        <g transform="matrix(1.14267,-0.0115715,-0.0126691,1.04368,-382.234,-990.233)">
                            <path d="M2682.51,2481.62L2687.45,2481.68L2707,2462.13L2702.06,2462.07L2702,2457.13L2682.45,2476.68L2682.51,2481.62Z" style="fill:none;stroke:black;stroke-width:1.07px;"/>
                            <path d="M2682.51,2481.62L2687.45,2481.68L2707,2462.13L2702.06,2462.07L2702,2457.13L2682.45,2476.68L2682.51,2481.62Z"/>
                        </g>
                        <g transform="matrix(1.22376,-0.0247823,-0.0271329,1.11774,-565.771,-1136.44)">
                            <path d="M2702.02,2459.1L2682.14,2478.99" style="fill:none;stroke:white;stroke-width:1.09px;"/>
                        </g>
                    </g>
                </g>
                <g transform="matrix(0.861439,0,-0.166685,1.09686,-1568.69,-1512.4)">
                    <path d="M2334,1414.96L2753.67,1414.96C2761.68,1414.96 2769.92,1418.2 2776.16,1423.82C2782.4,1429.43 2786,1436.83 2786,1444.05C2786,1469.59 2786,1506.1 2786,1528.68C2786,1540.51 2776.41,1549.14 2763.25,1549.14C2734.52,1549.14 2687.4,1549.14 2675.69,1549.14C2675.03,1549.14 2674.34,1548.87 2673.82,1548.4C2673.3,1547.93 2673,1547.31 2673,1546.71C2673,1540.93 2673,1526.38 2673,1520.6C2673,1520 2672.7,1519.38 2672.18,1518.91C2671.66,1518.44 2670.97,1518.17 2670.31,1518.17C2638.41,1518.17 2334,1518.17 2334,1518.17L2334,1879.49C2334,1891.38 2324.36,1900.05 2311.13,1900.05C2282.39,1900.05 2235.38,1900.05 2223.69,1900.05C2223.03,1900.05 2222.34,1899.78 2221.82,1899.32C2221.3,1898.85 2221,1898.23 2221,1897.63C2221,1859.49 2221,1384 2221,1384L2301.67,1384C2309.68,1384 2317.92,1387.24 2324.16,1392.85C2330.4,1398.46 2334,1405.87 2334,1413.08L2334,1414.96Z"/>
                </g>
            </g>
        </g>
    </g>
</svg>
